<svg width="630" height="593" viewBox="0 0 630 593" fill="none" xmlns="http://www.w3.org/2000/svg">
<path d="M198.612 83.9505C198.612 130.457 216.597 208.875 148.683 293.648C82.3467 376.45 173.607 114.254 265.261 98.0252C372.398 79.0551 187.758 518.3 178.238 428.909C172.911 378.897 327.884 116.399 371.475 159.99C426.929 215.444 281.519 532.19 247.565 526.981C187.666 517.791 401.897 153.446 462.684 184.825C535.168 222.244 415.694 471.949 360.255 485.342C315.904 496.057 481.32 254.065 592.012 309.448" stroke="black" stroke-width="8" stroke-linecap="round"/>
<path d="M599.507 289.988C600.588 288.054 603.546 289.052 603.233 291.246L602.657 295.288C602.469 296.604 603.594 297.734 604.912 297.551L620.626 295.372C622.746 295.078 623.784 297.87 621.987 299.032L610.309 306.583C608.955 307.459 609.141 309.495 610.632 310.111L618.582 313.393C620.409 314.147 620.151 316.813 618.212 317.202L613.01 318.248C611.834 318.484 611.129 319.694 611.503 320.833L612.98 325.326C613.544 327.043 611.721 328.569 610.131 327.711L603.787 324.291C602.159 323.413 600.314 325.025 600.966 326.756L604.455 336.022C605.212 338.032 602.7 339.659 601.175 338.147L591.312 328.364C590.676 327.733 589.698 327.602 588.918 328.043L577.799 334.333C575.946 335.382 573.956 333.194 575.174 331.448L581.723 322.062C582.322 321.203 582.157 320.028 581.345 319.367L569.928 310.072C568.468 308.884 569.308 306.521 571.19 306.521H579.986C580.981 306.521 581.824 305.791 581.966 304.807L583.345 295.244C583.643 293.176 586.514 292.893 587.21 294.864L589.444 301.188C590.018 302.81 592.237 302.999 593.076 301.497L599.507 289.988Z" fill="#CD4631"/>
</svg>
