<svg width="120" height="167" viewBox="0 0 120 167" fill="none" xmlns="http://www.w3.org/2000/svg">
<path d="M60.2122 82.5083C58.0012 88.8007 56.1682 95.3729 54.4405 101.727C54.3977 101.443 54.3534 101.158 54.3074 100.873L54.289 100.758L54.2668 100.644C52.3725 90.9478 46.9639 82.7092 37.4626 76.7531C36.8453 76.363 36.2198 75.9642 35.5851 75.5596C29.8785 71.9213 23.4334 67.8123 15.604 65.3008C26.0718 62.5742 34.5375 58.0913 41.3946 52.1442C49.0986 45.4627 54.4321 37.2281 58.3662 28.3591C58.1717 31.1753 58.0102 34.0878 58.006 36.8838C57.6088 50.6871 69.1516 57.7616 78.5362 61.4064C75.2179 62.7611 71.7631 64.9879 69.512 67.9976C69.4436 68.0796 69.3746 68.1622 69.3051 68.2454C66.2212 71.9369 62.161 76.7971 60.2122 82.5083ZM6.54472 62.1465C6.54495 62.1466 6.54878 62.1526 6.55556 62.1643C6.54789 62.1523 6.5445 62.1465 6.54472 62.1465ZM5.93084 67.2695C5.9308 67.2694 5.9336 67.2669 5.93942 67.2622C5.9338 67.2673 5.93087 67.2696 5.93084 67.2695Z" stroke="#81ADC8" stroke-width="14"/>
<path d="M95.9249 135.609C95.5562 136.659 95.2126 137.736 94.8874 138.818C93.6824 136.425 91.8002 134.356 89.1948 132.722C88.9579 132.573 88.7156 132.418 88.4677 132.26C87.1378 131.411 85.6471 130.459 83.9572 129.615C86.6016 128.557 88.888 127.156 90.8592 125.447C92.557 123.974 93.9639 122.322 95.1449 120.556C95.7894 124.295 98.5614 126.649 101.277 128.111C100.688 128.556 100.144 129.078 99.691 129.676C99.6608 129.712 99.6301 129.749 99.599 129.786C98.4461 131.164 96.7523 133.189 95.9249 135.609ZM76.5675 129.423L76.3055 129.367L76.5675 129.423Z" stroke="#CD4631" stroke-width="8"/>
<path d="M26.8496 156.531C26.7496 156.816 26.6525 157.104 26.5578 157.395C25.7947 156.273 24.7686 155.288 23.4701 154.473C23.3238 154.381 23.1731 154.285 23.0182 154.185C22.457 153.827 21.8389 153.432 21.1587 153.046C22.4262 152.439 23.5572 151.695 24.5633 150.822C25.352 150.138 26.0414 149.395 26.6477 148.609C27.2556 150.218 28.4827 151.357 29.7523 152.154C29.5778 152.325 29.4135 152.51 29.2631 152.708C29.2437 152.731 29.224 152.755 29.204 152.779C28.4989 153.621 27.3942 154.94 26.8496 156.531ZM15.7451 152.958L15.7986 152.613L15.7451 152.958Z" stroke="black" stroke-width="6"/>
</svg>
