<svg width="20" height="20" viewBox="0 0 20 20" fill="none" xmlns="http://www.w3.org/2000/svg">
<path d="M16.5333 4.86699C16.5333 5.64019 15.9065 6.26699 15.1333 6.26699C14.3601 6.26699 13.7333 5.64019 13.7333 4.86699C13.7333 4.09379 14.3601 3.46699 15.1333 3.46699C15.9065 3.46699 16.5333 4.09379 16.5333 4.86699Z" fill="black"/>
<path fill-rule="evenodd" clip-rule="evenodd" d="M10 14.667C12.5773 14.667 14.6667 12.5777 14.6667 10.0003C14.6667 7.423 12.5773 5.33366 10 5.33366C7.42268 5.33366 5.33334 7.423 5.33334 10.0003C5.33334 12.5777 7.42268 14.667 10 14.667ZM10 12.8003C11.5464 12.8003 12.8 11.5467 12.8 10.0003C12.8 8.45393 11.5464 7.20033 10 7.20033C8.45361 7.20033 7.20001 8.45393 7.20001 10.0003C7.20001 11.5467 8.45361 12.8003 10 12.8003Z" fill="black"/>
<path fill-rule="evenodd" clip-rule="evenodd" d="M0.666672 9.62699C0.666672 6.4907 0.666672 4.92255 1.27704 3.72465C1.81393 2.67094 2.67062 1.81425 3.72433 1.27736C4.92223 0.666992 6.49038 0.666992 9.62667 0.666992H10.3733C13.5096 0.666992 15.0778 0.666992 16.2757 1.27736C17.3294 1.81425 18.1861 2.67094 18.723 3.72465C19.3333 4.92255 19.3333 6.4907 19.3333 9.62699V10.3737C19.3333 13.51 19.3333 15.0781 18.723 16.276C18.1861 17.3297 17.3294 18.1864 16.2757 18.7233C15.0778 19.3337 13.5096 19.3337 10.3733 19.3337H9.62667C6.49038 19.3337 4.92223 19.3337 3.72433 18.7233C2.67062 18.1864 1.81393 17.3297 1.27704 16.276C0.666672 15.0781 0.666672 13.51 0.666672 10.3737V9.62699ZM9.62667 2.53366H10.3733C11.9723 2.53366 13.0592 2.53511 13.8994 2.60376C14.7178 2.67062 15.1363 2.79181 15.4282 2.94057C16.1307 3.2985 16.7018 3.86962 17.0598 4.57209C17.2085 4.86404 17.3297 5.28255 17.3966 6.10093C17.4652 6.9411 17.4667 8.02804 17.4667 9.62699V10.3737C17.4667 11.9726 17.4652 13.0596 17.3966 13.8997C17.3297 14.7181 17.2085 15.1366 17.0598 15.4286C16.7018 16.131 16.1307 16.7022 15.4282 17.0601C15.1363 17.2088 14.7178 17.33 13.8994 17.3969C13.0592 17.4655 11.9723 17.467 10.3733 17.467H9.62667C8.02772 17.467 6.94078 17.4655 6.10061 17.3969C5.28223 17.33 4.86372 17.2088 4.57177 17.0601C3.8693 16.7022 3.29817 16.131 2.94025 15.4286C2.79149 15.1366 2.6703 14.7181 2.60343 13.8997C2.53479 13.0596 2.53334 11.9726 2.53334 10.3737V9.62699C2.53334 8.02804 2.53479 6.9411 2.60343 6.10093C2.6703 5.28255 2.79149 4.86404 2.94025 4.57209C3.29817 3.86962 3.8693 3.2985 4.57177 2.94057C4.86372 2.79181 5.28223 2.67062 6.10061 2.60376C6.94078 2.53511 8.02772 2.53366 9.62667 2.53366Z" fill="black"/>
</svg>
