<svg width="24" height="24" viewBox="0 0 24 24" fill="none" xmlns="http://www.w3.org/2000/svg">
<path d="M6.33812 14.8448C6.45533 13.8744 6.85333 13.3311 7.60335 12.7741C8.67649 12.0198 10.017 12.4465 10.017 12.4465V9.91511C10.3429 9.90678 10.6689 9.9261 10.9913 9.97283V13.2305C10.9913 13.2305 9.65116 12.8038 8.57801 13.5585C7.8284 14.1151 7.42958 14.6588 7.31278 15.6292C7.30912 16.1562 7.40801 16.845 7.8634 17.4406C7.75081 17.3829 7.63604 17.3171 7.51911 17.2432C6.51596 16.5696 6.33324 15.559 6.33812 14.8448ZM16.5263 5.2346C15.7881 4.42566 15.5089 3.60891 15.408 3.03516H16.3366C16.3366 3.03516 16.1515 4.53955 17.5009 6.01898L17.5197 6.03887C17.156 5.81009 16.8224 5.54005 16.5263 5.2346ZM20.9999 7.52805V10.7202C20.9999 10.7202 19.8149 10.6737 18.9379 10.4506C17.7134 10.1386 16.9263 9.66002 16.9263 9.66002C16.9263 9.66002 16.3826 9.31873 16.3387 9.29494V15.8866C16.3387 16.2537 16.2382 17.1703 15.9317 17.9348C15.5317 18.9348 14.9143 19.5913 14.8008 19.7254C14.8008 19.7254 14.0499 20.6128 12.7253 21.2103C11.5313 21.7494 10.483 21.7357 10.1696 21.7494C10.1696 21.7494 8.35744 21.8211 6.72677 20.7614C6.37415 20.5278 6.04499 20.2633 5.74356 19.9712L5.7517 19.977C7.38278 21.0368 9.19455 20.965 9.19455 20.965C9.50831 20.9513 10.5566 20.965 11.7502 20.426C13.0737 19.8284 13.8257 18.9411 13.8257 18.9411C13.938 18.8069 14.5582 18.1505 14.9566 17.15C15.2623 16.3859 15.3636 15.4689 15.3636 15.1019V8.51096C15.4076 8.53514 15.9508 8.87642 15.9508 8.87642C15.9508 8.87642 16.7383 9.3554 17.9628 9.66704C18.8402 9.89014 20.0249 9.93656 20.0249 9.93656V7.43522C20.4302 7.5261 20.7757 7.55067 20.9999 7.52805Z" fill="black"/>
<path d="M20.0253 7.43522V9.93578C20.0253 9.93578 18.8407 9.88936 17.9633 9.66626C16.7387 9.35423 15.9513 8.87564 15.9513 8.87564C15.9513 8.87564 15.408 8.53436 15.364 8.51017V15.1027C15.364 15.4697 15.2635 16.3867 14.9571 17.1508C14.557 18.1512 13.9397 18.8077 13.8261 18.9418C13.8261 18.9418 13.0749 19.8292 11.7507 20.4267C10.5571 20.9658 9.50874 20.9521 9.19498 20.9658C9.19498 20.9658 7.38321 21.0375 5.75213 19.9778L5.74399 19.9719C5.57178 19.8052 5.40968 19.6291 5.25849 19.4446C4.73799 18.81 4.41894 18.0596 4.33877 17.8454C4.33863 17.8445 4.33863 17.8436 4.33877 17.8427C4.20976 17.4706 3.93873 16.577 3.97576 15.7115C4.04128 14.1845 4.57847 13.2472 4.72049 13.0124C5.09664 12.3721 5.58587 11.7992 6.16641 11.3193C6.6787 10.9051 7.25936 10.5755 7.88458 10.3442C8.56046 10.0725 9.28422 9.92685 10.017 9.91511V12.4465C10.017 12.4465 8.67652 12.0213 7.60378 12.7741C6.85376 13.3311 6.45576 13.8744 6.33855 14.8448C6.33367 15.559 6.51639 16.5696 7.51873 17.2436C7.63566 17.3177 7.75042 17.3835 7.86301 17.441C8.03812 17.6686 8.25125 17.8669 8.49379 18.028C9.47293 18.6478 10.2934 18.691 11.3425 18.2885C12.042 18.0194 12.5686 17.4129 12.8128 16.7408C12.9662 16.3212 12.9642 15.8987 12.9642 15.4619V3.03516H15.4059C15.5069 3.60891 15.786 4.42566 16.5243 5.2346C16.8204 5.54005 17.1539 5.81009 17.5176 6.03887C17.6251 6.15003 18.1745 6.6996 18.8797 7.03699C19.2444 7.21138 19.6288 7.345 20.0253 7.43522Z" fill="black"/>
<path d="M3.36691 17.0674V17.0693L3.4275 17.2335C3.42054 17.2144 3.39803 17.1563 3.36691 17.0674Z" fill="black"/>
<path d="M7.88461 10.3435C7.25939 10.5749 6.67873 10.9044 6.16644 11.3186C5.58572 11.7997 5.09661 12.3738 4.72093 13.0153C4.57891 13.2493 4.04172 14.1874 3.9762 15.7144C3.93917 16.5799 4.2102 17.4735 4.33921 17.8456C4.33907 17.8465 4.33907 17.8474 4.33921 17.8483C4.4206 18.0605 4.73843 18.8109 5.25893 19.4475C5.41012 19.632 5.57222 19.808 5.74443 19.9748C5.19268 19.6091 4.7006 19.1669 4.28427 18.6627C3.76825 18.0336 3.45001 17.2909 3.36699 17.0717C3.36689 17.0702 3.36689 17.0686 3.36699 17.067V17.0643C3.23758 16.6926 2.96573 15.7986 3.00358 14.9319C3.0691 13.4049 3.60628 12.4677 3.74831 12.2329C4.12388 11.5913 4.613 11.0171 5.19382 10.5362C5.706 10.1219 6.28669 9.7923 6.91199 9.56107C7.30202 9.40597 7.70833 9.29155 8.1239 9.21978C8.75019 9.115 9.38984 9.10591 10.0191 9.19287V9.91444C9.2856 9.92595 8.56113 10.0716 7.88461 10.3435Z" fill="black"/>
<path d="M15.408 3.03476H12.9662V15.4619C12.9662 15.8987 12.9662 16.32 12.8148 16.7408C12.5682 17.4125 12.0437 18.019 11.3445 18.2881C10.295 18.6922 9.47454 18.6474 8.49581 18.0276C8.25285 17.8673 8.03917 17.6696 7.8634 17.4425C8.69726 17.8688 9.44361 17.8614 10.3682 17.5057C11.067 17.2366 11.5923 16.6301 11.8381 15.958C11.992 15.5383 11.9899 15.1159 11.9899 14.6795V2.25H15.3616C15.3616 2.25 15.3237 2.55891 15.408 3.03476ZM20.0253 6.74328V7.43483C19.6295 7.34447 19.2458 7.21085 18.8817 7.0366C18.1765 6.69921 17.6271 6.14964 17.5197 6.03848C17.6443 6.11693 17.7737 6.1883 17.9071 6.25222C18.7645 6.66255 19.609 6.78502 20.0253 6.74328Z" fill="black"/>
</svg>
